<?xml version="1.0" encoding="UTF-8" standalone="no"?>
<!-- Generator: Adobe Illustrator 15.0.2, SVG Export Plug-In . SVG Version: 6.00 Build 0)  -->

<svg
   xmlns:dc="http://purl.org/dc/elements/1.1/"
   xmlns:cc="http://creativecommons.org/ns#"
   xmlns:rdf="http://www.w3.org/1999/02/22-rdf-syntax-ns#"
   xmlns:svg="http://www.w3.org/2000/svg"
   xmlns="http://www.w3.org/2000/svg"
   xmlns:sodipodi="http://sodipodi.sourceforge.net/DTD/sodipodi-0.dtd"
   xmlns:inkscape="http://www.inkscape.org/namespaces/inkscape"
   version="1.1"
   id="Icon"
   x="0px"
   y="0px"
   viewBox="0 0 611 611"
   enable-background="new 0 0 611 611"
   xml:space="preserve"
   inkscape:version="0.48.4 r9939"
   width="100%"
   height="100%"
   sodipodi:docname="bitbucket.svg"><metadata
   id="metadata3051"><rdf:RDF><cc:Work
       rdf:about=""><dc:format>image/svg+xml</dc:format><dc:type
         rdf:resource="http://purl.org/dc/dcmitype/StillImage" /></cc:Work></rdf:RDF></metadata><defs
   id="defs3049" /><sodipodi:namedview
   pagecolor="#ffffff"
   bordercolor="#666666"
   borderopacity="1"
   objecttolerance="10"
   gridtolerance="10"
   guidetolerance="10"
   inkscape:pageopacity="0"
   inkscape:pageshadow="2"
   inkscape:window-width="885"
   inkscape:window-height="690"
   id="namedview3047"
   showgrid="false"
   inkscape:zoom="1"
   inkscape:cx="321.39501"
   inkscape:cy="341.88189"
   inkscape:window-x="157"
   inkscape:window-y="0"
   inkscape:window-maximized="0"
   inkscape:current-layer="Icon" />
<linearGradient
   id="SVGID_1_"
   gradientUnits="userSpaceOnUse"
   x1="342.7773"
   y1="314.2783"
   x2="342.7773"
   y2="302.7783"
   gradientTransform="matrix(53.0386 0 0 -53.0386 -17874.9062 16669.4297)">
	<stop
   offset="0"
   style="stop-color:#004889"
   id="stop3021" />
	<stop
   offset="1"
   style="stop-color:#00346E"
   id="stop3023" />
</linearGradient>


<linearGradient
   id="SVGID_2_"
   gradientUnits="userSpaceOnUse"
   x1="174.166"
   y1="387.8828"
   x2="438.0088"
   y2="387.8828"
   gradientTransform="matrix(1 0 0 -1 -0.5 520.5)">
	<stop
   offset="0"
   style="stop-color:#004889"
   id="stop3030" />
	<stop
   offset="1"
   style="stop-color:#00346E"
   id="stop3032" />
</linearGradient>

<linearGradient
   id="SVGID_3_"
   gradientUnits="userSpaceOnUse"
   x1="242.0679"
   y1="223.3862"
   x2="370.2559"
   y2="223.3862"
   gradientTransform="matrix(1 0 0 -1 -0.5 520.5)">
	<stop
   offset="0"
   style="stop-color:#004889"
   id="stop3037" />
	<stop
   offset="1"
   style="stop-color:#00346E"
   id="stop3039" />
</linearGradient>


<g
   id="g3124" /><g
   id="g3089"><path
     id="path3027"
     d="M 308.3125 72.59375 C 287.96997 72.573527 267.62281 73.589687 247.4375 75.5 C 217.0195 78.56 186.69425 83.99425 157.78125 94.03125 C 136.53525 102.61125 107.57325 113.1325 104.03125 138.9375 C 111.16925 198.1115 123.2245 256.69525 132.5625 315.65625 C 136.0525 332.44225 135.192 352.93675 150.75 364.09375 C 182.509 389.52375 223.89 398.7935 263.375 403.9375 C 322.227 409.6295 384.27825 405.22725 438.03125 378.78125 C 452.78425 370.57325 470.444 360.60625 473.875 342.53125 C 484.655 280.03025 495.51275 217.4735 505.59375 154.8125 C 506.67375 144.8895 509.65675 133.44475 502.46875 124.96875 C 487.65675 105.55175 463.27625 97.241 440.90625 90 C 397.82406 77.791375 353.06606 72.638241 308.3125 72.59375 z M 303.59375 105.1875 C 330.73325 105.16125 357.89475 107.1895 384.71875 111.1875 C 403.44475 114.8855 425.052 117.264 437.5 133.625 C 419.796 151.49 393.2515 152.8785 369.8125 156.6875 C 327.2085 161.3025 284.0355 161.13675 241.4375 156.46875 C 217.9395 152.93275 191.89825 150.793 173.65625 133.625 C 184.71325 117.746 205.04425 115.2655 222.53125 111.5625 C 249.32925 107.2965 276.45425 105.21375 303.59375 105.1875 z M 303.90625 232.78125 C 335.08988 232.38019 366.04678 256.43273 369 288.75 C 374.796 323.622 346.35375 358.9215 311.21875 361.0625 C 276.45675 365.1975 242.235 335.527 241.75 300.5 C 239.662 274.159 256.32775 248.164 280.46875 238.125 C 287.98803 234.57295 295.95748 232.88348 303.90625 232.78125 z M 303.90625 264.84375 C 299.27542 264.99797 294.67878 266.21469 290.5 268.75 C 268.022 279.101 268.021 315.66025 290.875 325.53125 C 311.37 337.81025 340.61475 318.90525 337.34375 295.03125 C 337.425 277.55469 320.44493 264.29297 303.90625 264.84375 z "
     style="fill:#000000" /><path
     inkscape:connector-curvature="0"
     style="fill:#000000"
     id="path3045"
     d="m 150.22407,402.446 5.12684,-2.472 c 86.86126,56.389 208.25975,56.389 295.18202,0.056 13.64139,3.862 3.49146,20.387 3.32975,29.88 -8.29589,28.061 -3.1121,66.421 -33.88837,82.354 -51.83483,28.705 -115.06851,30.257 -172.57327,21.348 -30.06536,-6.38 -65.85761,-14.693 -82.39142,-42.917 -7.4243,-27.358 -12.00601,-55.578 -16.63959,-83.528 l 1.85404,-4.721 z" /></g>
</svg>